<svg xmlns="http://www.w3.org/2000/svg" width="166" height="40" viewBox="0 0 166 40"><g id="Logo" transform="translate(-78 -26)"><g id="Icon"><g id="Group_3" data-name="Group 3" transform="translate(99.832 55.331)"><rect id="Rectangle_1" width="11" height="11" fill="#1d505d" data-name="Rectangle 1" rx="2" transform="translate(0.168 -0.331)"/><rect id="Rectangle_5" width="4" height="4" fill="#fff" data-name="Rectangle 5" rx="1" transform="translate(3.668 3.169)"/></g><g id="Group_1" data-name="Group 1" transform="translate(78 33.5)"><rect id="Rectangle_1-2" width="11" height="11" fill="#1d505d" data-name="Rectangle 1" rx="2" transform="translate(0 -0.5)"/><rect id="Rectangle_12" width="4" height="4" fill="#fff" data-name="Rectangle 12" rx="1" transform="translate(3.5 3)"/></g><rect id="Rectangle_9" width="1.5" height="11.278" fill="#fff" data-name="Rectangle 9" transform="translate(95.7 51.767) rotate(-45)"/><rect id="Rectangle_1-3" width="16" height="16" fill="#4c8394" data-name="Rectangle 1" rx="2" transform="translate(102 26)"/><g id="Group_2" data-name="Group 2" transform="translate(78 55.331)"><rect id="Rectangle_1-4" width="11" height="11" fill="#1d505d" data-name="Rectangle 1" rx="2" transform="translate(0 -0.331)"/><rect id="Rectangle_14" width="4" height="4" fill="#fff" data-name="Rectangle 14" rx="1" transform="translate(3.5 3.169)"/></g><rect id="Rectangle_8" width="1.5" height="11.278" fill="#fff" data-name="Rectangle 8" transform="translate(85.361 59.742) rotate(-135)"/><rect id="Rectangle_1-5" width="11" height="11" fill="#4c8394" data-name="Rectangle 1" rx="2" transform="translate(89 44)"/><rect id="Rectangle_7" width="1.5" height="12.857" fill="#fff" data-name="Rectangle 7" transform="translate(84.348 40.283) rotate(-45)"/><rect id="Rectangle_10" width="1.975" height="18.561" fill="#fff" data-name="Rectangle 10" transform="translate(96.029 49.375) rotate(-135)"/><rect id="Rectangle_11" width="1.58" height="18.561" fill="#4c8394" data-name="Rectangle 11" transform="translate(95.75 48.564) rotate(-135)"/><rect id="Rectangle_15" width="4" height="4" fill="#fff" data-name="Rectangle 15" rx="1" transform="translate(92.5 47.5)"/><rect id="Rectangle_13" width="6" height="6" fill="#fff" data-name="Rectangle 13" rx="1" transform="translate(107 31)"/></g><text id="CoinSpot" fill="#1d505d" font-family="Raleway-Bold, Raleway" font-size="28" font-weight="700" letter-spacing="-.016em" transform="translate(124 59)"><tspan x="0" y="0">CoinSpot</tspan></text></g></svg>